<?xml version="1.0" encoding="utf-8"?>
<!-- Generator: Adobe Illustrator 16.0.0, SVG Export Plug-In . SVG Version: 6.00 Build 0)  -->
<!DOCTYPE svg PUBLIC "-//W3C//DTD SVG 1.1//EN" "http://www.w3.org/Graphics/SVG/1.1/DTD/svg11.dtd">
<svg version="1.1" id="Layer_1" xmlns="http://www.w3.org/2000/svg" xmlns:xlink="http://www.w3.org/1999/xlink" x="0px" y="0px"
	 width="91.863px" height="110.102px" viewBox="0 0 91.863 110.102" enable-background="new 0 0 91.863 110.102"
	 xml:space="preserve">
<path fill-rule="evenodd" clip-rule="evenodd" fill="#000000" d="M0,41.038c0.683-2.672,1.214-5.393,2.073-8.006
	C8.064,14.806,20.409,3.708,39.429,0.622C53.03-1.585,65.18,2.126,75.672,11.034c11.436,9.709,16.906,22.297,16.116,37.111
	c-0.848,15.9-8.336,28.365-21.987,36.818c-2.854,1.767-6.104,2.881-9.096,4.441c-1.072,0.56-2.238,1.368-2.816,2.376
	c-3.009,5.236-5.888,10.551-8.709,15.891c-0.937,1.772-2.185,2.642-4.178,2.387c-0.702-0.798-1.57-1.502-2.078-2.408
	c-2.871-5.127-5.716-10.272-8.434-15.482c-0.825-1.58-1.905-2.439-3.567-3.057C15.629,83.433,5.82,72.696,1.576,56.921
	C1.006,54.806,0.523,52.667,0,50.539C0,47.372,0,44.205,0,41.038z M46.004,100.461c2.668-4.875,5.121-9.254,7.461-13.693
	c0.785-1.488,1.746-2.336,3.456-2.806c5.661-1.554,10.751-4.344,15.156-8.21c18.612-16.337,17.685-45.055-0.785-60.375
	c-17.175-14.246-43.316-11.394-56.857,6.5C-2.428,44.162,8.536,76.576,35.446,84.163c1.109,0.313,2.312,1.294,2.896,2.297
	C40.916,90.884,43.279,95.432,46.004,100.461z"/>
<path fill-rule="evenodd" clip-rule="evenodd" fill="#000000" d="M44.515,58.991c1.092,0,1.968,0,2.926,0
	c0.334-2.03-0.242-4.772,2.766-4.788c3.143-0.016,2.022,2.796,2.492,4.729c0.982,0,1.998,0,3.173,0
	c0.059-0.833-0.119-1.77,0.23-2.424c0.481-0.901,1.447-2.285,2.051-2.21c0.97,0.121,2.527,1.211,2.586,1.986
	c0.269,3.559,0.237,7.159-0.013,10.722c-0.053,0.748-1.578,2.04-2.252,1.938c-0.907-0.137-1.827-1.271-2.396-2.191
	c-0.377-0.609-0.147-1.594-0.197-2.55c-1.069,0-2.029,0-3.106,0c-0.667,1.754,0.63,4.972-2.772,4.82
	c-2.872-0.129-2.214-2.797-2.55-4.808c-0.941,0-1.889,0-2.848,0c-0.548,1.889,0.536,4.814-2.669,4.825
	c-3.219,0.011-2.14-2.912-2.649-4.84c-0.988,0-1.946,0-3.11,0c-0.063,0.901,0.134,1.926-0.25,2.637
	c-0.482,0.89-1.362,1.976-2.217,2.122c-0.684,0.117-2.248-1.006-2.284-1.643c-0.215-3.797-0.223-7.619,0.025-11.412
	c0.042-0.639,1.728-1.698,2.542-1.604c0.754,0.087,1.515,1.383,1.975,2.296c0.297,0.588,0.056,1.446,0.056,2.357
	c1.126,0,2.084,0,3.201,0c0.825-1.596-0.75-5.102,2.933-4.74C44.736,54.469,44.353,56.907,44.515,58.991z"/>
<path fill-rule="evenodd" clip-rule="evenodd" fill="#000000" d="M58.487,30.634c4.821-0.001,8.909,4.057,8.915,8.85
	c0.006,4.692-4.244,8.956-8.922,8.948c-4.718-0.007-8.881-4.202-8.88-8.948C49.603,34.652,53.635,30.636,58.487,30.634z"/>
<path fill-rule="evenodd" clip-rule="evenodd" fill="#000000" d="M33.576,30.634c4.876,0.016,8.831,3.991,8.83,8.875
	c-0.001,4.771-4.133,8.931-8.864,8.925c-4.63-0.006-8.959-4.348-8.932-8.96C24.636,34.745,28.822,30.619,33.576,30.634z"/>
</svg>
